<?xml version="1.0" encoding="UTF-8"?>
<svg width="1200pt" height="1200pt" version="1.1" viewBox="0 0 1200 1200" xmlns="http://www.w3.org/2000/svg">
 <g>
  <path d="m1200 600c0 214.36-114.36 412.44-300 519.62-185.64 107.18-414.36 107.18-600 0-185.64-107.18-300-305.26-300-519.62s114.36-412.44 300-519.62c185.64-107.18 414.36-107.18 600 0 185.64 107.18 300 305.26 300 519.62" fill="#3b6af9"/>
  <path d="m639.24 558.54c0 21.668-17.566 39.23-39.234 39.23-21.668 0-39.23-17.562-39.23-39.23 0-21.668 17.562-39.234 39.23-39.234 21.668 0 39.234 17.566 39.234 39.234" fill="#fff"/>
  <path d="m685.21 367.77h-170.43c-52.648 0-95.332 42.68-95.332 95.328l-0.003906 170.42c0 52.648 42.684 95.328 95.332 95.328h29.168l56.055 103.4 56.047-103.4h29.168c52.656 0 95.332-42.68 95.332-95.328v-170.43c-0.007812-52.648-42.684-95.32-95.336-95.32zm12.477 242.69c0 9.3789-7.6016 16.984-16.984 16.984h-161.41c-9.3789 0-16.988-7.6055-16.988-16.984v-102.39c0-9.3867 7.6094-16.992 16.988-16.992h11.895v-25.637c0-5.6367 4.5625-10.195 10.191-10.195h40.539c5.6328 0 10.191 4.5586 10.191 10.195v25.637h88.594c9.3828 0 16.984 7.6055 16.984 16.992z" fill="#fff"/>
 </g>
</svg>
